<?xml version="1.0" encoding="utf-8"?>
<!-- Generator: Adobe Illustrator 26.4.1, SVG Export Plug-In . SVG Version: 6.00 Build 0)  -->
<svg version="1.1" id="Layer_2_00000114055159268143029830000005014293109313928622_"
	 xmlns="http://www.w3.org/2000/svg" xmlns:xlink="http://www.w3.org/1999/xlink" x="0px" y="0px" viewBox="0 0 1272 1199.8"
	 style="enable-background:new 0 0 1272 1199.8;" xml:space="preserve">
<style type="text/css">
	.st0{fill:#343434;}
</style>
<g id="Layer_1-2">
	<path class="st0" d="M1272,575.5c-253.5,0-459-205.5-459-459c0-2.6,0-5.2,0.1-7.8h-0.2C808.7,358.6,604.8,560,353.9,560
		c253.5,0,459,205.5,459,459c0,2.6,0,5.2-0.1,7.8h0.2C817.2,776.8,1021.1,575.5,1272,575.5L1272,575.5z"/>
	<path class="st0" d="M611.7,205.8c-111.8,0-202.4-90.6-202.4-202.4c0-1.2,0-2.3,0-3.5h-0.1c-1.9,110.2-91.7,198.9-202.3,198.9
		c111.8,0,202.3,90.6,202.3,202.4c0,1.2,0,2.3,0,3.5h0.1C411.2,294.5,501.1,205.8,611.7,205.8L611.7,205.8z"/>
	<path class="st0" d="M632.3,889c-174.6,0-316.2-141.5-316.2-316.2c0-1.8,0-3.6,0-5.4H316C313.2,739.6,172.8,878.2,0,878.2
		c174.6,0,316.2,141.6,316.2,316.2c0,1.8,0,3.6-0.1,5.4h0.1C319.1,1027.8,459.5,889,632.3,889L632.3,889z"/>
</g>
</svg>
