<?xml version="1.0" encoding="UTF-8"?><svg id="Layer_2" xmlns="http://www.w3.org/2000/svg" viewBox="0 0 1272 1199.8"><defs><style>.cls-1{fill:#fff;}</style></defs><g id="Layer_1-2"><path class="cls-1" d="M1272,575.49c-253.52,0-459.04-205.52-459.04-459.04,0-2.62,.03-5.23,.07-7.84h-.15c-4.19,249.9-208.07,451.2-458.97,451.2,253.52,0,459.04,205.52,459.04,459.04,0,2.62-.03,5.23-.07,7.84h.15c4.19-249.9,208.07-451.2,458.97-451.2Z"/><path class="cls-1" d="M611.71,205.81c-111.75,0-202.35-90.6-202.35-202.35,0-1.16,.01-2.31,.03-3.46h-.07c-1.85,110.16-91.72,198.89-202.32,198.89,111.75,0,202.35,90.6,202.35,202.35,0,1.16-.01,2.31-.03,3.46h.07c1.85-110.16,91.72-198.89,202.32-198.89Z"/><path class="cls-1" d="M632.32,889.04c-174.61,0-316.16-141.55-316.16-316.16,0-1.8,.02-3.6,.05-5.4h-.1c-2.88,172.12-143.3,310.76-316.11,310.76,174.61,0,316.16,141.55,316.16,316.16,0,1.8-.02,3.6-.05,5.4h.1c2.88-172.12,143.3-310.76,316.11-310.76Z"/></g></svg>